<?xml version="1.0" encoding="UTF-8" standalone="no"?>
<!-- Created with Inkscape (http://www.inkscape.org/) -->

<svg
   xmlns:dc="http://purl.org/dc/elements/1.1/"
   xmlns:cc="http://creativecommons.org/ns#"
   xmlns:rdf="http://www.w3.org/1999/02/22-rdf-syntax-ns#"
   xmlns:svg="http://www.w3.org/2000/svg"
   xmlns="http://www.w3.org/2000/svg"
   xmlns:sodipodi="http://sodipodi.sourceforge.net/DTD/sodipodi-0.dtd"
   xmlns:inkscape="http://www.inkscape.org/namespaces/inkscape"
   width="620.40808mm"
   height="205.52118mm"
   viewBox="0 0 2198.2964 728.22465"
   id="svg4136"
   version="1.1"
   inkscape:version="0.91 r13725"
   sodipodi:docname="ggg.svg">
  <defs
     id="defs4138">
    <marker
       inkscape:stockid="Arrow1Lstart"
       orient="auto"
       refY="0"
       refX="0"
       id="marker4416"
       style="overflow:visible"
       inkscape:isstock="true">
      <path
         id="path4418"
         d="M 0,0 5,-5 -12.5,0 5,5 0,0 Z"
         style="fill-rule:evenodd;stroke:#000000;stroke-width:1pt"
         transform="matrix(0.8,0,0,0.8,10,0)"
         inkscape:connector-curvature="0" />
    </marker>
    <marker
       inkscape:stockid="Arrow1Lstart"
       orient="auto"
       refY="0"
       refX="0"
       id="Arrow1Lstart"
       style="overflow:visible"
       inkscape:isstock="true">
      <path
         id="path4158"
         d="M 0,0 5,-5 -12.5,0 5,5 0,0 Z"
         style="fill-rule:evenodd;stroke:#000000;stroke-width:1pt"
         transform="matrix(0.8,0,0,0.8,10,0)"
         inkscape:connector-curvature="0" />
    </marker>
  </defs>
  <sodipodi:namedview
     id="base"
     pagecolor="#ffffff"
     bordercolor="#666666"
     borderopacity="1.0"
     inkscape:pageopacity="0.0"
     inkscape:pageshadow="2"
     inkscape:zoom="0.35355339"
     inkscape:cx="1180.7033"
     inkscape:cy="718.98744"
     inkscape:document-units="px"
     inkscape:current-layer="layer1"
     showgrid="false"
     showguides="false"
     fit-margin-top="0"
     fit-margin-left="0"
     fit-margin-right="0"
     fit-margin-bottom="0"
     inkscape:window-width="1842"
     inkscape:window-height="1057"
     inkscape:window-x="70"
     inkscape:window-y="-8"
     inkscape:window-maximized="1">
    <inkscape:grid
       type="xygrid"
       id="grid4559"
       originx="264.41595"
       originy="-520.29531" />
  </sodipodi:namedview>
  <metadata
     id="metadata4141">
    <rdf:RDF>
      <cc:Work
         rdf:about="">
        <dc:format>image/svg+xml</dc:format>
        <dc:type
           rdf:resource="http://purl.org/dc/dcmitype/StillImage" />
        <dc:title></dc:title>
      </cc:Work>
    </rdf:RDF>
  </metadata>
  <g
     inkscape:label="Layer 1"
     inkscape:groupmode="layer"
     id="layer1"
     transform="translate(264.41595,196.15777)">
    <text
       xml:space="preserve"
       style="font-style:normal;font-variant:normal;font-weight:normal;font-stretch:normal;font-size:16.25px;line-height:125%;font-family:sans-serif;-inkscape-font-specification:sans-serif;letter-spacing:0px;word-spacing:0px;fill:#000000;fill-opacity:1;stroke:none;stroke-width:1px;stroke-linecap:butt;stroke-linejoin:miter;stroke-opacity:1"
       x="294"
       y="272.36218"
       id="text4517"
       sodipodi:linespacing="125%"><tspan
         sodipodi:role="line"
         id="tspan4519"
         x="294"
         y="272.36218"></tspan></text>
    <text
       xml:space="preserve"
       style="font-style:normal;font-weight:normal;font-size:37.12283325px;line-height:125%;font-family:sans-serif;letter-spacing:0px;word-spacing:0px;fill:#000000;fill-opacity:1;stroke:none;stroke-width:1px;stroke-linecap:butt;stroke-linejoin:miter;stroke-opacity:1"
       x="1148.3442"
       y="185.50092"
       id="text4537"
       sodipodi:linespacing="125%"><tspan
         sodipodi:role="line"
         id="tspan4539"
         x="1148.3442"
         y="185.50092"
         style="fill:#ffffff;fill-opacity:1">2</tspan></text>
    <g
       style="font-style:normal;font-weight:normal;font-size:414.21514893px;line-height:125%;font-family:sans-serif;letter-spacing:0px;word-spacing:0px;fill:#000000;fill-opacity:1;stroke:none;stroke-width:1px;stroke-linecap:butt;stroke-linejoin:miter;stroke-opacity:1"
       id="text4566"
       transform="matrix(2.2844822,0,0,2.2844822,-533.78491,-705.82111)">
      <path
         d="m 341.20033,487.64748 0,-81.10365 -66.74365,0 0,-33.57407 107.19435,0 0,129.64448 q -23.66366,16.78704 -52.1814,25.48394 -28.51774,8.49465 -60.8783,8.49465 -70.78872,0 -110.83491,-41.25971 -39.84394,-41.46197 -39.84394,-115.28449 0,-74.02478 39.84394,-115.28449 40.04619,-41.46197 110.83491,-41.46197 29.52901,0 56.02422,7.28113 26.69746,7.28112 49.1476,21.43887 l 0,43.4845 q -22.6524,-19.21408 -48.13634,-28.92225 -25.48394,-9.70817 -53.59717,-9.70817 -55.41746,0 -83.32844,30.94479 -27.70873,30.94478 -27.70873,92.22759 0,61.08055 27.70873,92.02534 27.91098,30.94478 83.32844,30.94478 21.64112,0 38.63042,-3.64056 16.98929,-3.84282 30.54027,-11.73071 z"
         id="path4571"
         inkscape:connector-curvature="0" />
    </g>
    <g
       transform="matrix(2.2844822,0,0,2.2844822,868.56961,-1003.5032)"
       style="font-style:normal;font-weight:normal;font-size:414.21514893px;line-height:125%;font-family:sans-serif;letter-spacing:0px;word-spacing:0px;fill:#dcdcdc;fill-opacity:1;stroke:none;stroke-width:1px;stroke-linecap:butt;stroke-linejoin:miter;stroke-opacity:1"
       id="text4566-1">
      <path
         inkscape:connector-curvature="0"
         d="m 425.34603,622.70487 0,-81.10365 -66.74365,0 0,-33.57407 107.19435,0 0,129.64448 -52.1814,25.48394 -60.8783,8.49465 -110.83491,-41.25971 -39.84394,-115.28449 39.84394,-115.28449 110.83491,-41.46197 56.02422,7.28113 49.1476,21.43887 0,43.4845 -48.13634,-28.92225 -53.59717,-9.70817 -83.32844,30.94479 -27.70873,92.22759 27.70873,92.02534 83.32844,30.94478 38.63042,-3.64056 z"
         id="path4571-7"
         sodipodi:nodetypes="ccccccccccccccccccccccc"
         style="fill:#dcdcdc;fill-opacity:1" />
    </g>
    <path
       style="font-style:normal;font-weight:normal;font-size:medium;line-height:125%;font-family:sans-serif;letter-spacing:0px;word-spacing:0px;fill:#969696;fill-opacity:1;stroke:#000000;stroke-width:2.284482px;stroke-linecap:butt;stroke-linejoin:miter;stroke-opacity:1"
       d="m 1674.3997,-184.83284 -0.1251,0.0446 c 0.064,-3e-5 0.1238,0 0.1872,0 0.1,0 0.1991,0.005 0.299,0.005 l -0.3615,-0.0491 z m 127.7703,16.60713 c 0.092,0.0252 0.185,0.0462 0.2768,0.0712 0.042,0.0114 0.084,0.0242 0.1252,0.0356 l -0.183,-0.0804 -0.2187,-0.0268 z m 112.4349,48.9736 c 0.019,0.0114 0.039,0.0235 0.058,0.0356 l 0,-0.009 -0.058,-0.0268 z m -232.4728,11.16359 c -84.2465,0.0342 -147.6083,23.566015 -190.085,70.591413 l 190.085,-70.591413 z m 0.3838,0 122.0413,22.104174 c -38.6908,-14.711364 -79.3723,-22.081054 -122.0413,-22.104174 z m -261.1448,17.910002 -0.1696,0.06237 -0.063,0.174077 c 0.04,-0.04158 0.081,-0.08316 0.1203,-0.124955 0.037,-0.03791 0.075,-0.07379 0.1116,-0.111476 z m 383.4448,4.292314 109.8471,66.004584 0,-0.0095 c -34.4637,-29.221624 -71.0804,-51.219388 -109.8471,-65.99567 z m -312.9695,48.616641 C 1449.7567,9.8164863 1428.69,79.921008 1428.6528,173.05005 l 63.1936,-210.319613 z m 195.9523,194.350543 0,76.69969 0.062,0 0,-76.65509 244.8232,0 0,-0.0446 -244.8857,0 z m -357.5616,15.99584 -0.058,0.17408 0.058,0.1695 c 0,-0.0418 0,-0.083 0,-0.12495 0,-0.0734 0,-0.14531 0,-0.21863 z m 98.4157,0.37034 c 0.023,92.89774 21.1032,162.89631 63.2338,209.99832 l -63.2338,-209.99832 z m 411.6217,60.37812 0,185.23494 -69.7704,26.79805 -88.247,8.31693 -190.3348,-70.6851 c 0.014,0.0108 0.02,0.024 0.031,0.0357 42.508,47.12853 105.9615,70.69402 190.3615,70.69402 32.9594,0 62.3771,-2.77243 88.2516,-8.31695 25.8745,-5.85256 49.1324,-14.78489 69.7704,-26.79804 l 0,-185.27955 -0.062,0 z m -419.082,202.76566 0.01,0.0267 0.027,0.009 c -0.011,-0.0107 -0.024,-0.0236 -0.036,-0.0357 z"
       id="path4571-7-9"
       inkscape:connector-curvature="0" />
    <path
       inkscape:connector-curvature="0"
       style="font-style:normal;font-weight:normal;font-size:medium;line-height:125%;font-family:sans-serif;letter-spacing:0px;word-spacing:0px;fill:#dcdcdc;fill-opacity:1;stroke:#000000;stroke-width:2.284482px;stroke-linecap:butt;stroke-linejoin:miter;stroke-opacity:1"
       d="m 1674.2698,-184.78363 c -107.6554,0.0368 -191.958,31.57618 -252.9038,94.60968 l 252.9038,-94.60968 z m 0.4864,0.005 127.4089,16.55805 c -40.1809,-11.01413 -82.6492,-16.53348 -127.4089,-16.55805 z m 127.8104,16.66512 112.0333,48.86652 c -34.1234,-21.50233 -71.4696,-37.79112 -112.0333,-48.86652 z m 112.0914,48.9022 0,99.3259 c 0.02,0.01832 0.042,0.03569 0.062,0.05345 l 0,-99.33926 c -0.02,-0.0137 -0.042,-0.027 -0.062,-0.0402 z m -232.4059,11.0833 -0.1252,0.0446 c 0.062,-3e-5 0.1211,0 0.1829,0 0.068,0 0.1333,-3e-5 0.2008,0 l -0.2587,-0.0446 z m -261.1181,18.19108 c -60.5619,62.788532 -90.8624,150.460579 -90.9019,263.01887 l 90.9019,-263.01887 z m 383.4182,3.957705 c 0.068,0.02536 0.1346,0.05026 0.2009,0.07585 0.019,0.0069 0.039,0.016 0.058,0.02285 l -0.1199,-0.07128 -0.1385,-0.02673 z m -312.5101,48.487242 -0.1516,0.05803 -0.05,0.169497 c 0.037,-0.04093 0.07,-0.08402 0.1077,-0.124954 0.031,-0.03447 0.064,-0.06827 0.094,-0.102603 z m 440.6375,194.622683 0,296.126 -119.2081,58.21416 -139.0767,19.40916 -253.1716,-94.24827 c 0.011,0.0108 0.021,0.0243 0.032,0.0357 60.9897,62.83803 145.3922,94.25719 253.2025,94.25719 49.2849,0 95.6402,-6.46748 139.0724,-19.40472 43.4322,-13.24527 83.1685,-32.65213 119.208,-58.21859 l 0,-296.17063 -0.058,0 z m -504.0318,15.92447 -0.058,0.2008 0.058,0.19624 c 0,-0.0509 0,-0.10071 0,-0.15169 0,-0.0826 0,-0.16312 0,-0.2454 z m -98.4157,0.37033 c 0.023,112.32861 30.3415,200.05321 90.9554,263.17057 l -90.9554,-263.17068 z m 357.6241,60.3603 0,0.0446 152.4134,0 0,-0.0446 -152.4134,0 z m -195.9745,149.66481 0.014,0.0357 0.027,0.009 c -0.014,-0.0137 -0.023,-0.0304 -0.035,-0.0446 z"
       id="path4571-6-7" />
    <g
       transform="matrix(2.2844822,0,0,2.2844822,74.298023,-1013.6545)"
       style="font-style:normal;font-weight:normal;font-size:414.21514893px;line-height:125%;font-family:sans-serif;letter-spacing:0px;word-spacing:0px;fill:#dcdcdc;fill-opacity:1;stroke:#000000;stroke-width:1px;stroke-linecap:butt;stroke-linejoin:miter;stroke-opacity:1"
       id="text4566-1-7">
      <path
         inkscape:connector-curvature="0"
         d="m 425.34603,622.70487 0,-81.10365 -66.74365,0 0,-33.57407 107.19435,0 0,129.64448 -52.1814,25.48394 -60.8783,8.49465 -110.83491,-41.25971 -39.84394,-115.28449 39.84394,-115.28449 110.83491,-41.46197 56.02422,7.28113 49.1476,21.43887 0,43.4845 -48.13634,-28.92225 -53.59717,-9.70817 -83.32844,30.94479 -27.70873,92.22759 27.70873,92.02534 83.32844,30.94478 38.63042,-3.64056 z"
         id="path4571-7-7"
         sodipodi:nodetypes="ccccccccccccccccccccccc"
         style="fill:#dcdcdc;fill-opacity:1;stroke:#000000;stroke-opacity:1" />
    </g>
  </g>
</svg>
