<?xml version="1.0" encoding="UTF-8" standalone="no"?>
<!-- Created with Inkscape (http://www.inkscape.org/) -->

<svg
   xmlns:dc="http://purl.org/dc/elements/1.1/"
   xmlns:cc="http://creativecommons.org/ns#"
   xmlns:rdf="http://www.w3.org/1999/02/22-rdf-syntax-ns#"
   xmlns:svg="http://www.w3.org/2000/svg"
   xmlns="http://www.w3.org/2000/svg"
   xmlns:sodipodi="http://sodipodi.sourceforge.net/DTD/sodipodi-0.dtd"
   xmlns:inkscape="http://www.inkscape.org/namespaces/inkscape"
   width="370.96451mm"
   height="99.25mm"
   viewBox="0 0 1314.4412 351.67322"
   id="svg4162"
   version="1.1"
   inkscape:version="0.91 r13725"
   sodipodi:docname="ooo.svg">
  <defs
     id="defs4164" />
  <sodipodi:namedview
     id="base"
     pagecolor="#ffffff"
     bordercolor="#666666"
     borderopacity="1.0"
     inkscape:pageopacity="0.0"
     inkscape:pageshadow="2"
     inkscape:zoom="0.7"
     inkscape:cx="614.8193"
     inkscape:cy="196.09994"
     inkscape:document-units="px"
     inkscape:current-layer="layer1"
     showgrid="false"
     fit-margin-top="0"
     fit-margin-left="0"
     fit-margin-right="0"
     fit-margin-bottom="0"
     inkscape:window-width="1842"
     inkscape:window-height="1057"
     inkscape:window-x="70"
     inkscape:window-y="-8"
     inkscape:window-maximized="1" />
  <metadata
     id="metadata4167">
    <rdf:RDF>
      <cc:Work
         rdf:about="">
        <dc:format>image/svg+xml</dc:format>
        <dc:type
           rdf:resource="http://purl.org/dc/dcmitype/StillImage" />
        <dc:title></dc:title>
      </cc:Work>
    </rdf:RDF>
  </metadata>
  <g
     inkscape:label="Layer 1"
     inkscape:groupmode="layer"
     id="layer1"
     transform="translate(-312.60364,-281.40027)">
    <path
       id="path4710-2"
       style="fill:#dcdcdc;fill-opacity:1;fill-rule:evenodd;stroke:#000000;stroke-width:0.84807402;stroke-linecap:butt;stroke-linejoin:miter;stroke-miterlimit:4;stroke-dasharray:none;stroke-opacity:1"
       d="m 378.54736,502.46582 c -4.38564,-57.32852 48.18156,-127.75319 119.8028,-124.12898 71.62126,3.6242 135.42928,31.71178 137.38258,96.94745 1.95331,65.23568 -96.36312,93.32323 -125.66273,92.41724 -29.2996,-0.90609 -127.13702,-7.90718 -131.52265,-65.23571 z m -65.1164,12.78596 c -6.91779,-90.42856 76.00038,-201.51463 188.97391,-195.79789 112.97353,5.71672 213.62268,50.02136 216.70377,152.92244 3.0811,102.9011 -152.00075,147.20572 -198.2172,145.77654 C 474.675,616.72369 320.34876,605.68035 313.43096,515.25178 Z"
       inkscape:connector-curvature="0" />
    <path
       style="fill:#dcdcdc;fill-opacity:1;fill-rule:evenodd;stroke:#000000;stroke-width:0.84807402;stroke-linecap:butt;stroke-linejoin:miter;stroke-miterlimit:4;stroke-dasharray:none;stroke-opacity:1"
       d="m 937.77207,294.93429 c -104.7209,1.36678 -181.03193,102.80216 -178.81371,189.00063 l 66.25742,0 c 2.14245,-89.33989 83.22873,-130.11235 119.00273,-129.92072 71.10889,3.59829 134.50609,31.31822 137.32109,95.56034 l 83.2602,0 c 0.07,0 0.1383,0.007 0.2079,0.008 -0.01,-0.50834 -0.016,-1.01675 -0.031,-1.52799 -3.081,-102.90109 -103.7296,-147.206 -216.70304,-152.92273 -3.53042,-0.17866 -7.0317,-0.24264 -10.5016,-0.19735 z"
       id="path4710-2-8"
       inkscape:connector-curvature="0"
       sodipodi:nodetypes="cccccsccscc" />
    <path
       style="fill:#dcdcdc;fill-opacity:1;fill-rule:evenodd;stroke:#000000;stroke-width:0.84807402;stroke-linecap:butt;stroke-linejoin:miter;stroke-miterlimit:4;stroke-dasharray:none;stroke-opacity:1"
       d="m 1085.1865,483.93481 c -0.6177,63.43511 -96.76503,90.78611 -125.68362,89.89192 -27.55611,-0.85218 -115.72579,-7.10031 -129.77111,-55.53155 l -67.05496,0 c 0.0553,1.02927 0.1084,2.05919 0.18674,3.08336 6.91779,90.42856 161.24467,101.47023 207.46105,102.89941 45.3947,1.40376 195.8109,-41.31442 198.226,-140.34314 l -83.3641,0 z"
       id="path4710-2-83"
       inkscape:connector-curvature="0" />
    <path
       style="fill:#dcdcdc;fill-opacity:1;fill-rule:evenodd;stroke:#000000;stroke-width:0.84807402;stroke-linecap:butt;stroke-linejoin:miter;stroke-miterlimit:4;stroke-dasharray:none;stroke-opacity:1"
       d="m 1262.8031,329.72268 c -41.4534,37.73534 -66.3689,92.60049 -65.0877,142.38502 l 65.0877,0 0,-142.38502 z"
       id="path4710-2-8-9"
       inkscape:connector-curvature="0" />
    <path
       style="fill:#dcdcdc;fill-opacity:1;fill-rule:evenodd;stroke:#000000;stroke-width:0.84807402;stroke-linecap:butt;stroke-linejoin:miter;stroke-miterlimit:4;stroke-dasharray:none;stroke-opacity:1"
       d="m 1197.2823,518.9046 c 0.055,1.02925 0.1084,2.05917 0.1867,3.08335 2.8219,36.88619 30.1739,60.55879 64.7072,75.76282 l 0,-78.84617 -64.8939,0 z"
       id="path4710-2-83-2"
       inkscape:connector-curvature="0" />
    <path
       style="fill:#dcdcdc;fill-opacity:1;fill-rule:evenodd;stroke:#000000;stroke-width:0.84807402;stroke-linecap:butt;stroke-linejoin:miter;stroke-miterlimit:4;stroke-dasharray:none;stroke-opacity:1"
       d="m 1543.4502,324.47261 0,123.34565 82.9541,0 c 0.07,0 0.1383,0.009 0.2079,0.01 -0.01,-0.50835 -0.016,-1.01675 -0.031,-1.528 -1.7389,-58.07585 -34.56,-97.48401 -83.131,-121.82742 z"
       id="path4710-2-8-0"
       inkscape:connector-curvature="0" />
    <path
       style="fill:#dcdcdc;fill-opacity:1;fill-rule:evenodd;stroke:#000000;stroke-width:0.84807402;stroke-linecap:butt;stroke-linejoin:miter;stroke-miterlimit:4;stroke-dasharray:none;stroke-opacity:1"
       d="m 1543.1136,489.32453 0,107.34466 c 43.1984,-22.8971 80.8831,-58.17744 82.0822,-107.34466 l -82.0822,0 z"
       id="path4710-2-83-6"
       inkscape:connector-curvature="0" />
    <path
       style="fill:#dcdcdc;fill-opacity:1;fill-rule:evenodd;stroke:#000000;stroke-width:0.84807402;stroke-linecap:butt;stroke-linejoin:miter;stroke-miterlimit:4;stroke-dasharray:none;stroke-opacity:1"
       d="m 1388.8719,281.83441 c -43.4891,0.56753 -82.0698,18.40276 -112.1701,45.22831 l 0,136.17726 c 6.3983,-84.0542 83.8733,-122.51183 118.6166,-122.32564 69.8617,3.5351 132.2757,30.35676 137.1134,92.21708 l 0,-120.25256 c -37.4035,-18.62265 -84.0688,-28.36421 -133.0582,-30.84317 -3.5304,-0.17867 -7.0318,-0.24261 -10.5017,-0.19738 l 0,-0.004 z"
       id="path4710-2-8-6"
       inkscape:connector-curvature="0" />
    <path
       style="fill:#dcdcdc;fill-opacity:1;fill-rule:evenodd;stroke:#000000;stroke-width:0.84807402;stroke-linecap:butt;stroke-linejoin:miter;stroke-miterlimit:4;stroke-dasharray:none;stroke-opacity:1"
       d="m 1527.8112,501.36653 c -9.1462,56.95952 -97.4148,81.64837 -124.9113,80.79811 -27.2597,-0.84296 -113.8226,-6.97179 -129.2797,-53.98787 l 0,78.44561 c 49.7538,21.0718 113.2166,25.16215 140.1014,25.9935 22.5001,0.6958 70.7979,-9.45613 114.0896,-31.92374 l 0,-99.32561 z"
       id="path4710-2-83-5"
       inkscape:connector-curvature="0" />
    <path
       style="fill:none;fill-rule:evenodd;stroke:#000000;stroke-width:1.69614804;stroke-linecap:butt;stroke-linejoin:miter;stroke-miterlimit:4;stroke-dasharray:5.08844439, 1.69614813;stroke-dashoffset:0;stroke-opacity:1"
       d="m 718.64326,477.65219 c -24.07594,0 -57.58191,-0.50237 -82.5728,-0.50237"
       id="path4942-3"
       inkscape:connector-curvature="0"
       sodipodi:nodetypes="cc" />
    <path
       style="fill:none;fill-rule:evenodd;stroke:#000000;stroke-width:1.69614804;stroke-linecap:butt;stroke-linejoin:miter;stroke-miterlimit:4;stroke-dasharray:5.08844439, 1.69614813;stroke-dashoffset:0;stroke-opacity:1"
       d="m 378.46946,502.68922 c -53.99271,1.32923 -23.24122,0.34747 -65.38373,0.96352"
       id="path4942-3-8"
       inkscape:connector-curvature="0"
       sodipodi:nodetypes="cc" />
    <path
       style="fill:none;fill-rule:evenodd;stroke:#000000;stroke-width:1.69614804;stroke-linecap:butt;stroke-linejoin:miter;stroke-miterlimit:4;stroke-dasharray:5.08844439, 1.69614813;stroke-dashoffset:0;stroke-opacity:1"
       d="m 825.48977,340.47689 c 0,66.91131 -0.32465,57.77272 -0.32465,143.6875"
       id="path4942-3-3"
       inkscape:connector-curvature="0"
       sodipodi:nodetypes="cc" />
    <path
       style="fill:none;fill-rule:evenodd;stroke:#000000;stroke-width:1.69614804;stroke-linecap:butt;stroke-linejoin:miter;stroke-miterlimit:4;stroke-dasharray:5.08844439, 1.69614813;stroke-dashoffset:0;stroke-opacity:1"
       d="m 829.72379,518.35405 c 0,42.40729 -0.007,25.99368 -0.007,80.49659"
       id="path4942-3-3-1"
       inkscape:connector-curvature="0"
       sodipodi:nodetypes="cc" />
    <path
       style="fill:none;fill-rule:evenodd;stroke:#000000;stroke-width:1.69614804;stroke-linecap:butt;stroke-linejoin:miter;stroke-miterlimit:4;stroke-dasharray:5.08844439, 1.69614813;stroke-dashoffset:0;stroke-opacity:1"
       d="m 1085.1723,483.22616 c 0,53.26074 0.099,41.10758 0.099,109.55961"
       id="path4942-3-3-1-4"
       inkscape:connector-curvature="0"
       sodipodi:nodetypes="cc" />
    <path
       style="fill:none;fill-rule:evenodd;stroke:#000000;stroke-width:1.69614804;stroke-linecap:butt;stroke-linejoin:miter;stroke-miterlimit:4;stroke-dasharray:5.08844439, 1.69614813;stroke-dashoffset:0;stroke-opacity:1"
       d="m 1081.9316,326.32279 c 0,53.26074 -0.3676,55.20062 -0.3676,123.65265"
       id="path4942-3-3-1-4-8"
       inkscape:connector-curvature="0"
       sodipodi:nodetypes="cc" />
  </g>
</svg>
