<?xml version="1.0" encoding="UTF-8" standalone="no"?>
<!-- Created with Inkscape (http://www.inkscape.org/) -->

<svg
   xmlns:dc="http://purl.org/dc/elements/1.1/"
   xmlns:cc="http://creativecommons.org/ns#"
   xmlns:rdf="http://www.w3.org/1999/02/22-rdf-syntax-ns#"
   xmlns:svg="http://www.w3.org/2000/svg"
   xmlns="http://www.w3.org/2000/svg"
   xmlns:sodipodi="http://sodipodi.sourceforge.net/DTD/sodipodi-0.dtd"
   xmlns:inkscape="http://www.inkscape.org/namespaces/inkscape"
   width="83.684067mm"
   height="20.117397mm"
   viewBox="0 0 296.51835 71.282116"
   id="svg2"
   version="1.1"
   inkscape:version="0.91 r13725"
   sodipodi:docname="oooo.svg">
  <defs
     id="defs4" />
  <sodipodi:namedview
     id="base"
     pagecolor="#ffffff"
     bordercolor="#666666"
     borderopacity="1.0"
     inkscape:pageopacity="0.0"
     inkscape:pageshadow="2"
     inkscape:zoom="2.8284271"
     inkscape:cx="118.14803"
     inkscape:cy="58.936599"
     inkscape:document-units="px"
     inkscape:current-layer="layer1"
     showgrid="true"
     fit-margin-top="0"
     fit-margin-left="0"
     fit-margin-right="0"
     fit-margin-bottom="0"
     inkscape:window-width="1842"
     inkscape:window-height="1057"
     inkscape:window-x="70"
     inkscape:window-y="-8"
     inkscape:window-maximized="1">
    <inkscape:grid
       type="xygrid"
       id="grid4282"
       originx="-99.576408"
       originy="-574.34655" />
  </sodipodi:namedview>
  <metadata
     id="metadata7">
    <rdf:RDF>
      <cc:Work
         rdf:about="">
        <dc:format>image/svg+xml</dc:format>
        <dc:type
           rdf:resource="http://purl.org/dc/dcmitype/StillImage" />
        <dc:title></dc:title>
      </cc:Work>
    </rdf:RDF>
  </metadata>
  <g
     inkscape:label="Layer 1"
     inkscape:groupmode="layer"
     id="layer1"
     transform="translate(-99.576405,-406.73351)">
    <text
       xml:space="preserve"
       style="font-style:normal;font-variant:normal;font-weight:normal;font-stretch:normal;font-size:16.25px;line-height:125%;font-family:Arial;-inkscape-font-specification:Arial;letter-spacing:0px;word-spacing:0px;fill:#000000;fill-opacity:1;stroke:none;stroke-width:1px;stroke-linecap:butt;stroke-linejoin:miter;stroke-opacity:1"
       x="125"
       y="217.3622"
       id="text4161"
       sodipodi:linespacing="125%"><tspan
         sodipodi:role="line"
         id="tspan4163"
         x="125"
         y="217.3622" /></text>
    <path
       style="fill:#c8c8c8;fill-opacity:1;fill-rule:evenodd;stroke:#000000;stroke-width:0.5;stroke-linecap:round;stroke-linejoin:miter;stroke-miterlimit:4;stroke-dasharray:none;stroke-dashoffset:0;stroke-opacity:1"
       d="m 360.84476,407.76562 a 35,35 0 0 0 -35,35 35,35 0 0 0 35,35 35,35 0 0 0 35,-35 35,35 0 0 0 -35,-35 z m -0.5,15.16406 a 20,20 0 0 1 20,20 20,20 0 0 1 -20,20 20,20 0 0 1 -20,-20 20,20 0 0 1 20,-20 z"
       id="path4179"
       inkscape:connector-curvature="0" />
    <path
       inkscape:connector-curvature="0"
       style="fill:#c8c8c8;fill-opacity:1;fill-rule:evenodd;stroke:#000000;stroke-width:0.5;stroke-linecap:round;stroke-linejoin:miter;stroke-miterlimit:4;stroke-dasharray:none;stroke-dashoffset:0;stroke-opacity:1"
       d="m 134.92995,407.08706 -34.999992,35 34.999992,35 35,-35 z m -0.5,15.16406 20,20 -20,20 -20,-20 z"
       id="path4179-7"
       sodipodi:nodetypes="cccccccccc" />
    <path
       style="fill:#c8c8c8;fill-opacity:1;fill-rule:evenodd;stroke:none;stroke-width:1;stroke-linecap:round;stroke-linejoin:miter;stroke-miterlimit:4;stroke-dasharray:none;stroke-dashoffset:0;stroke-opacity:1"
       d="m 373.01504,301.84328 a 35,35 0 0 1 0.0117,0.23437 35,35 0 0 1 -0.01,0.29492 l 0.26368,-0.26367 -0.26563,-0.26562 z"
       id="path4262"
       inkscape:connector-curvature="0" />
    <path
       style="fill:#c8c8c8;fill-opacity:1;fill-rule:evenodd;stroke:none;stroke-width:1;stroke-linecap:round;stroke-linejoin:miter;stroke-miterlimit:4;stroke-dasharray:none;stroke-dashoffset:0;stroke-opacity:1"
       d="m 338.32759,337.06202 a 35,35 0 0 1 -0.0879,0.006 l 0.041,0.041 0.0469,-0.0469 z"
       id="path4258"
       inkscape:connector-curvature="0" />
    <path
       style="fill:#c8c8c8;fill-opacity:1;fill-rule:evenodd;stroke:none;stroke-width:1;stroke-linecap:round;stroke-linejoin:miter;stroke-miterlimit:4;stroke-dasharray:none;stroke-dashoffset:0;stroke-opacity:1"
       d="m 357.519,302.01124 a 20,20 0 0 1 0.008,0.23047 20,20 0 0 1 -0.0156,0.30078 l 0.26954,-0.26953 -0.26172,-0.26172 z"
       id="path4254"
       inkscape:connector-curvature="0" />
    <path
       style="fill:#c8c8c8;fill-opacity:1;fill-rule:evenodd;stroke:none;stroke-width:1;stroke-linecap:round;stroke-linejoin:miter;stroke-miterlimit:4;stroke-dasharray:none;stroke-dashoffset:0;stroke-opacity:1"
       d="m 337.82155,322.23195 a 20,20 0 0 1 -0.0801,0.002 l 0.0391,0.0391 0.041,-0.041 z"
       id="path4179-5"
       inkscape:connector-curvature="0" />
    <g
       id="g4299"
       transform="translate(2.4696699,64.853553)">
      <path
         inkscape:connector-curvature="0"
         d="m 317.81795,377.54523 -34.68945,34.68945 a 35,35 0 0 0 34.68945,-34.68945 z m -34.99028,-35.29492 a 35,35 0 0 0 -35,35 35,35 0 0 0 35,35 35,35 0 0 0 0.21289,-0.01 l -34.95898,-34.95898 35,-35 34.73437,34.73438 a 35,35 0 0 0 -34.98828,-34.76563 z"
         style="fill:#c8c8c8;fill-opacity:1;fill-rule:evenodd;stroke:#000000;stroke-width:0.5;stroke-linecap:round;stroke-linejoin:miter;stroke-miterlimit:4;stroke-dasharray:none;stroke-dashoffset:0;stroke-opacity:1"
         id="path4260" />
      <path
         sodipodi:nodetypes="cccccccccc"
         id="path4179-7-4"
         d="m 283.07976,342.28962 -35,35 35,35 35,-35 z m -0.5,15.16406 20,20 -20,20 -20,-20 z"
         style="fill:#c8c8c8;fill-opacity:1;fill-rule:evenodd;stroke:#000000;stroke-width:0.5;stroke-linecap:round;stroke-linejoin:miter;stroke-miterlimit:4;stroke-dasharray:none;stroke-dashoffset:0;stroke-opacity:1"
         inkscape:connector-curvature="0" />
      <path
         inkscape:connector-curvature="0"
         d="m 302.16949,377.72752 -19.68945,19.68946 a 20,20 0 0 0 19.68945,-19.68946 z M 282.1853,357.42674 a 20,20 0 0 0 -20,20 20,20 0 0 0 20,20 20,20 0 0 0 0.21484,-0.008 l -19.96093,-19.96094 20,-20 19.73828,19.73828 A 20,20 0 0 0 282.1853,357.42655 Z"
         style="fill:#ffffff;fill-opacity:1;fill-rule:evenodd;stroke:#000000;stroke-width:0.5;stroke-linecap:round;stroke-linejoin:miter;stroke-miterlimit:4;stroke-dasharray:none;stroke-dashoffset:0;stroke-opacity:1"
         id="path4252" />
    </g>
    <path
       id="path4179-5-9"
       style="fill:#c8c8c8;fill-opacity:1;fill-rule:evenodd;stroke:#000000;stroke-width:0.5;stroke-linecap:round;stroke-linejoin:miter;stroke-miterlimit:4;stroke-dasharray:none;stroke-dashoffset:0;stroke-opacity:1"
       d="m 209.70512,462.49214 a 20,20 0 0 1 -0.0801,0.002 l 0.0391,0.0391 0.041,-0.041 z m 19.68945,-19.68946 -19.68945,19.68946 a 20,20 0 0 0 19.68945,-19.68946 z M 209.41038,422.5019 a 20,20 0 0 0 -20,20 20,20 0 0 0 20,20 20,20 0 0 0 0.21484,-0.008 l -19.96093,-19.96094 20,-20 19.73828,19.73828 a 20,20 0 0 0 -19.99219,-19.76953 z m 19.99219,19.76953 a 20,20 0 0 1 0.008,0.23047 20,20 0 0 1 -0.0156,0.30078 l 0.26954,-0.26953 -0.26172,-0.26172 z m -19.19141,35.05078 a 35,35 0 0 1 -0.0879,0.006 l 0.041,0.041 0.0469,-0.0469 z m 34.68945,-34.68945 -34.68945,34.68945 a 35,35 0 0 0 34.68945,-34.68945 z m -34.99028,-35.29492 a 35,35 0 0 0 -35,35 35,35 0 0 0 35,35 35,35 0 0 0 0.21289,-0.01 l -34.95898,-34.95898 35,-35 34.73437,34.73438 a 35,35 0 0 0 -34.98828,-34.76563 z m 34.98828,34.76563 a 35,35 0 0 1 0.0117,0.23437 35,35 0 0 1 -0.01,0.29492 l 0.26368,-0.26367 -0.26563,-0.26562 z"
       inkscape:connector-curvature="0" />
  </g>
</svg>
