<?xml version="1.0" encoding="UTF-8" standalone="no"?>
<!-- Created with Inkscape (http://www.inkscape.org/) -->

<svg
   xmlns:dc="http://purl.org/dc/elements/1.1/"
   xmlns:cc="http://creativecommons.org/ns#"
   xmlns:rdf="http://www.w3.org/1999/02/22-rdf-syntax-ns#"
   xmlns:svg="http://www.w3.org/2000/svg"
   xmlns="http://www.w3.org/2000/svg"
   xmlns:sodipodi="http://sodipodi.sourceforge.net/DTD/sodipodi-0.dtd"
   xmlns:inkscape="http://www.inkscape.org/namespaces/inkscape"
   width="210mm"
   height="297mm"
   viewBox="0 0 744.09448819 1052.3622047"
   id="svg2"
   version="1.1"
   inkscape:version="0.91 r13725"
   sodipodi:docname="test2.svg">
  <defs
     id="defs4" />
  <sodipodi:namedview
     id="base"
     pagecolor="#ffffff"
     bordercolor="#666666"
     borderopacity="1.0"
     inkscape:pageopacity="0.0"
     inkscape:pageshadow="2"
     inkscape:zoom="0.7"
     inkscape:cx="63.207814"
     inkscape:cy="522.66424"
     inkscape:document-units="px"
     inkscape:current-layer="layer1"
     showgrid="false"
     inkscape:window-width="1842"
     inkscape:window-height="1057"
     inkscape:window-x="70"
     inkscape:window-y="-8"
     inkscape:window-maximized="1" />
  <metadata
     id="metadata7">
    <rdf:RDF>
      <cc:Work
         rdf:about="">
        <dc:format>image/svg+xml</dc:format>
        <dc:type
           rdf:resource="http://purl.org/dc/dcmitype/StillImage" />
        <dc:title />
      </cc:Work>
    </rdf:RDF>
  </metadata>
  <g
     inkscape:label="Layer 1"
     inkscape:groupmode="layer"
     id="layer1">
    <g
       style="font-style:normal;font-weight:normal;font-size:140.03198242px;line-height:125%;font-family:sans-serif;letter-spacing:0px;word-spacing:0px;fill:#000000;fill-opacity:1;stroke:none;stroke-width:1px;stroke-linecap:butt;stroke-linejoin:miter;stroke-opacity:1"
       id="text4179"
       transform="matrix(1.6068822,0,0,1.6068822,-5.0680763,-3.1997026)">
      <path
         d="m 51.222124,98.3991 q 0,9.77762 4.854624,15.38437 4.854625,5.53838 13.333124,5.53838 8.410124,0 13.196373,-5.60675 4.854624,-5.60675 4.854624,-15.316 0,-9.572499 -4.922999,-15.179248 -4.922999,-5.675124 -13.264748,-5.675124 -8.273374,0 -13.196374,5.606749 -4.854624,5.606749 -4.854624,15.247623 z m 37.26437,20.44412 q -4.102499,5.26488 -9.435749,7.79475 -5.264874,2.4615 -12.307498,2.4615 -11.760498,0 -19.144998,-8.4785 -7.316124,-8.54687 -7.316124,-22.22187 0,-13.674998 7.384499,-22.221872 7.384499,-8.546874 19.076623,-8.546874 7.042624,0 12.375873,2.598249 5.33325,2.529875 9.367374,7.726375 l 0,-8.957124 9.777624,0 0,50.323996 q 9.982752,-1.50425 15.589502,-9.09388 5.67512,-7.658 5.67512,-19.760369 0,-7.316124 -2.188,-13.743373 -2.11962,-6.42725 -6.49562,-11.897249 -7.111,-8.957124 -17.367251,-13.674998 -10.187874,-4.78625 -22.221873,-4.78625 -8.410123,0 -16.136498,2.256375 -7.726374,2.188 -14.290373,6.563999 -10.734873,6.974249 -16.820248,18.324498 -6.016999,11.281874 -6.016999,24.478247 0,10.87162 3.897375,20.37575 3.965749,9.50412 11.418623,16.75187 7.179374,7.111 16.615123,10.80325 9.435749,3.76062 20.170623,3.76062 8.820374,0 17.298872,-3.0085 8.546874,-2.94012 15.657876,-8.4785 l 6.15375,7.58963 q -8.54688,6.63237 -18.666376,10.1195 -10.051124,3.5555 -20.444122,3.5555 -12.649374,0 -23.862872,-4.51275 Q 35.017251,150.50084 26.265252,141.95397 17.513253,133.4071 12.932129,122.1936 8.3510044,110.91172 8.3510044,97.98885 q 0,-12.444248 4.6494996,-23.726122 Q 17.650003,62.980854 26.265252,54.43398 35.085626,45.750357 46.641,41.169232 q 11.555373,-4.649499 24.478246,-4.649499 14.495499,0 26.871372,5.948624 12.444252,5.948624 20.854372,16.888623 5.12812,6.700749 7.79475,14.563873 2.735,7.863124 2.735,16.273248 0,17.982619 -10.87162,28.375619 -10.87163,10.393 -30.016626,10.80325 l 0,-10.52975 z"
         id="path4136"
         inkscape:connector-curvature="0" />
      <path
         d="m 165.06648,71.117478 q -4.30762,3.14525 -6.42724,6.222125 -2.11963,3.076874 -2.11963,6.222124 0,5.196499 4.71788,9.777624 4.78624,4.512749 21.87999,13.743369 4.30763,-3.07687 6.42725,-6.15375 2.11963,-3.145245 2.11963,-6.290495 0,-5.128124 -4.923,-9.777623 -4.85463,-4.6495 -21.67488,-13.743374 z m 30.76875,-35.965245 0,11.213498 q -5.67512,-2.666624 -10.59812,-3.965749 -4.85463,-1.3675 -8.68363,-1.3675 -6.63237,0 -10.32462,2.735 -3.69225,2.734999 -3.69225,7.589624 0,6.153749 14.08525,14.016873 1.77775,1.025625 2.735,1.572625 14.42712,8.136624 18.8715,13.401498 4.51274,5.264875 4.51274,12.170749 0,6.153749 -3.14524,10.939999 -3.14525,4.78625 -9.50413,8.41012 4.23925,3.5555 6.15375,7.31613 1.98288,3.69225 1.98288,8.06825 0,9.70925 -6.97425,15.45274 -6.97425,5.7435 -18.80313,5.7435 -4.99137,0 -10.25624,-1.02562 -5.26488,-0.95725 -11.28188,-2.94013 l 0,-11.21349 q 5.94863,2.66662 11.00838,3.96575 5.05974,1.36749 9.02549,1.36749 6.97425,0 10.80325,-2.87174 3.89738,-2.87175 3.89738,-8.06825 0,-6.97425 -15.11088,-15.38438 l -1.70937,-0.95725 q -14.63225,-8.205 -19.00825,-13.401495 -4.376,-5.264874 -4.376,-12.239123 0,-6.222125 3.14525,-11.076749 3.21363,-4.922999 9.43575,-8.273374 -4.03412,-3.0085 -6.08537,-6.837499 -1.98288,-3.829 -1.98288,-8.546874 0,-8.888749 6.8375,-14.290373 6.8375,-5.47 18.18775,-5.47 4.99137,0 10.18787,1.025625 5.26488,0.95725 10.6665,2.940125 z"
         id="path4138"
         inkscape:connector-curvature="0" />
      <path
         d="m 278.91085,73.237103 q 0.547,0.06837 1.094,0.06837 4.51274,0 6.22212,-2.59825 l 1.70937,0 q -0.34187,4.717875 -9.09387,5.05975 -8.61525,-0.478625 -9.23062,-5.05975 l 1.641,0 q 2.52987,2.59825 6.63237,2.59825 0.47863,0 1.02563,-0.06837 z m 7.79474,-5.811874 q -2.87175,-0.13675 -2.94012,-3.0085 0.20512,-3.008499 3.14525,-3.213624 2.66662,0.205125 2.87175,3.008499 -0.20513,3.076875 -3.07688,3.213625 z m -16.06812,0.13675 q -2.80337,-0.13675 -3.0085,-2.940125 0.20513,-3.076874 3.14525,-3.281999 2.735,0.205125 2.94013,3.076874 -0.20513,3.0085 -3.07688,3.14525 z m -1.50425,33.640491 q -2.59825,-0.13675 -2.735,-2.66662 0.20513,-2.59825 2.87175,-2.735 2.4615,0.13675 2.59825,2.666625 -0.13675,2.598245 -2.735,2.734995 z m -11.2135,-10.939994 q -8.4785,6.974249 -8.4785,17.025374 0,9.91437 8.41013,17.02537 8.4785,7.111 20.44412,7.111 11.89725,0 20.37575,-7.111 8.4785,-7.111 8.4785,-17.02537 0,-10.051125 -8.4785,-17.025374 -6.90588,-5.811874 -16.41,-7.999874 0.13675,0 0.34187,0 4.1025,0 7.17938,-3.487125 4.44437,-4.922999 4.44437,-12.033998 0,-6.974249 -4.30762,-10.392999 -4.23925,-3.487124 -10.59812,-3.487124 -6.2905,0 -11.00838,3.487124 -4.71787,3.41875 -4.71787,10.392999 0,7.110999 4.51275,12.033998 3.07687,3.41875 6.8375,3.41875 -9.846,2.05125 -17.02538,8.068249 z m 8.61525,-38.35837 q 1.77775,-7.657999 11.82888,-9.298999 9.02549,0 12.37587,7.999874 l 0.13675,1.299125 q 5.67512,6.427249 5.67512,14.358748 0,7.931499 -5.1965,13.469873 -1.3675,1.641 -3.0085,2.735 7.58963,1.9145 13.53825,6.700749 9.70925,7.863124 9.70925,19.144994 0,11.14513 -9.70925,19.00825 -9.70925,7.86313 -23.58937,7.86313 -13.88012,0 -23.65775,-7.86313 -9.70925,-7.86312 -9.70925,-19.00825 0,-11.28187 9.77763,-19.144994 6.2905,-5.128124 14.35875,-6.905874 -1.43588,-1.025625 -2.735,-2.529875 -5.1965,-5.538374 -5.1965,-13.469873 0,-7.931499 5.1965,-12.786123 l 0.20512,-1.572625 z m -41.16174,46.973619 2.80337,2.256375 -0.41025,-3.897375 q -0.0684,-1.025625 0.95725,-1.025625 1.16238,0 1.02563,1.025625 l -0.41025,3.897375 2.735,-2.256375 q 0.2735,-0.2735 0.547,-0.2735 1.094,0 1.094,1.162375 0,0.75212 -0.547,0.95725 l -3.282,1.43587 3.21362,1.50425 q 0.61538,0.20513 0.61538,1.02563 0,1.02562 -1.094,1.02562 -0.2735,0 -0.547,-0.13675 l -2.735,-2.25637 0.41025,3.76062 q 0.0684,1.094 -1.02563,1.094 -0.95725,0 -0.95725,-1.094 l 0.34188,-3.76062 -2.735,2.25637 q -0.20513,0.13675 -0.547,0.13675 -0.95725,0 -0.95725,-1.02562 0,-0.8205 0.61537,-1.02563 l 3.14525,-1.50425 -3.35037,-1.43587 q -0.47863,-0.20513 -0.47863,-0.95725 0,-1.162375 1.02563,-1.162375 0.34187,0 0.547,0.2735 z m 20.03387,-32.067871 2.52987,2.119625 -0.41025,-3.5555 q -0.13675,-0.888875 0.88888,-0.888875 1.02562,0 0.88887,0.888875 l -0.41025,3.5555 2.52988,-2.119625 q 0.2735,-0.205125 0.547,-0.205125 0.95725,0 0.95725,1.094 0,0.478625 -0.47863,0.8205 l -3.0085,1.3675 2.87175,1.299124 q 0.47863,0.205125 0.47863,0.8205 0,0.95725 -0.8205,0.95725 -0.34188,0 -0.547,-0.13675 l -2.39313,-2.05125 0.2735,3.41875 q 0.0684,1.025625 -0.88887,1.025625 -0.88888,0 -0.88888,-1.025625 l 0.34188,-3.41875 -2.4615,2.05125 q -0.20513,0.13675 -0.47863,0.13675 -0.88887,0 -0.88887,-0.95725 0,-0.615375 0.547,-0.8205 l 2.80337,-1.299124 -2.87175,-1.3675 q -0.547,-0.341875 -0.547,-0.8205 0,-1.094 0.95725,-1.094 0.2735,0 0.47863,0.205125 z m 59.28112,4.922999 2.4615,2.119625 -0.34188,-3.5555 q -0.13675,-0.957249 0.8205,-0.957249 1.094,0 0.95725,0.957249 l -0.41025,3.5555 2.52988,-2.119625 q 0.20512,-0.205125 0.547,-0.205125 0.88887,0 0.88887,1.094 0,0.478625 -0.47862,0.68375 l -2.94013,1.435875 2.80338,1.299125 q 0.547,0.2735 0.547,0.888875 0,0.95725 -0.8205,0.95725 -0.41025,0 -0.547,-0.13675 l -2.4615,-2.05125 0.34187,3.418749 q 0.0684,0.95725 -0.95725,0.95725 -0.8205,0 -0.8205,-0.95725 l 0.2735,-3.418749 -2.39312,2.05125 q -0.2735,0.13675 -0.47863,0.13675 -0.95725,0 -0.95725,-0.95725 0,-0.615375 0.547,-0.888875 l 2.87175,-1.299125 -2.94012,-1.435875 q -0.547,-0.205125 -0.547,-0.68375 0,-1.094 1.02562,-1.094 0.20513,0 0.47863,0.205125 z m 6.70075,-19.555247 2.52987,2.051249 -0.41025,-3.418749 q -0.13675,-0.95725 0.88888,-0.95725 1.02562,0 0.88887,0.95725 l -0.41025,3.418749 2.52988,-2.051249 q 0.2735,-0.13675 0.547,-0.13675 0.95725,0 0.95725,0.95725 0,0.615375 -0.47863,0.888875 l -3.0085,1.299124 2.87175,1.3675 q 0.47863,0.205125 0.47863,0.8205 0,1.025625 -0.8205,1.025625 -0.41025,0 -0.547,-0.205125 l -2.4615,-1.982875 0.34187,3.350375 q 0.0684,0.95725 -0.88887,0.95725 -0.88888,0 -0.88888,-0.95725 l 0.34188,-3.350375 -2.4615,1.982875 q -0.20513,0.205125 -0.47863,0.205125 -0.88887,0 -0.88887,-1.025625 0,-0.615375 0.547,-0.8205 l 2.80337,-1.3675 -2.87175,-1.299124 q -0.547,-0.2735 -0.547,-0.888875 0,-0.95725 0.95725,-0.95725 0.2735,0 0.47863,0.13675 z M 237.54398,6.5031115 238.8431,7.5971113 238.70635,5.6826116 q -0.0684,-0.41025 0.41025,-0.41025 0.547,0 0.47863,0.41025 l -0.20513,1.9144997 1.3675,-1.0939998 q 0.0684,-0.068375 0.20513,-0.068375 0.547,0 0.547,0.4786249 0,0.41025 -0.20513,0.547 l -1.641,0.6153749 1.57263,0.7521249 q 0.2735,0.13675 0.2735,0.4102499 0,0.547 -0.547,0.547 -0.13675,0 -0.20513,-0.13675 l -1.29912,-0.9572499 0.13675,1.7093748 q 0,0.478625 -0.47863,0.478625 -0.41025,0 -0.41025,-0.478625 l 0.13675,-1.7093748 -1.29912,0.9572499 q -0.13675,0.13675 -0.34188,0.13675 -0.41025,0 -0.41025,-0.547 0,-0.2734999 0.2735,-0.4102499 l 1.57263,-0.7521249 -1.641,-0.6153749 q -0.20513,-0.13675 -0.20513,-0.547 0,-0.4786249 0.547,-0.4786249 0.0684,0 0.20513,0.068375 z m 53.94786,19.4184975 1.43588,1.162375 -0.20513,-1.982875 q -0.0684,-0.68375 0.547,-0.68375 0.61538,0 0.547,0.68375 l -0.2735,1.982875 1.50425,-1.162375 q 0.13675,-0.205125 0.2735,-0.205125 0.61538,0 0.61538,0.68375 0,0.341875 -0.2735,0.41025 l -1.77775,0.888875 1.641,0.68375 q 0.34187,0.205125 0.34187,0.615375 0,0.478625 -0.547,0.478625 -0.13675,0 -0.2735,-0.06837 l -1.50425,-1.162375 0.2735,2.051249 q 0,0.478625 -0.547,0.478625 -0.547,0 -0.547,-0.478625 l 0.20513,-2.051249 -1.43588,1.162375 q -0.13675,0.06837 -0.2735,0.06837 -0.547,0 -0.547,-0.478625 0,-0.41025 0.2735,-0.615375 l 1.70938,-0.68375 -1.77775,-0.888875 q -0.2735,-0.06837 -0.2735,-0.41025 0,-0.68375 0.61537,-0.68375 0.13675,0 0.2735,0.205125 z m -57.36661,11.281874 1.29912,1.093999 -0.2735,-1.914499 q 0,-0.478625 0.47863,-0.478625 0.547,0 0.547,0.478625 l -0.2735,1.914499 1.29912,-1.093999 q 0.20513,-0.13675 0.34188,-0.13675 0.547,0 0.547,0.478625 0,0.41025 -0.34188,0.547 l -1.50425,0.615374 1.50425,0.752125 q 0.2735,0.13675 0.2735,0.478625 0,0.547 -0.47862,0.547 -0.13675,0 -0.34188,-0.13675 l -1.29912,-1.025625 0.20512,1.77775 q 0.0684,0.547 -0.47862,0.547 -0.47863,0 -0.47863,-0.547 l 0.2735,-1.77775 -1.29912,1.025625 q -0.20513,0.13675 -0.34188,0.13675 -0.47862,0 -0.47862,-0.547 0,-0.341875 0.2735,-0.478625 l 1.50425,-0.752125 -1.50425,-0.615374 q -0.34188,-0.13675 -0.34188,-0.547 0,-0.478625 0.547,-0.478625 0.13675,0 0.34188,0.13675 z m -6.49563,-19.281748 1.3675,1.094 -0.2735,-1.9145 q -0.0684,-0.41025 0.47863,-0.41025 0.547,0 0.47862,0.41025 l -0.20512,1.9145 1.29912,-1.094 q 0.20513,-0.13675 0.34188,-0.13675 0.47862,0 0.47862,0.547 0,0.2735 -0.2735,0.478625 l -1.57262,0.68375 1.50425,0.68375 q 0.34187,0.13675 0.34187,0.478625 0,0.478625 -0.47862,0.478625 -0.13675,0 -0.34188,-0.06837 l -1.29912,-1.025625 0.20512,1.709375 q 0.0684,0.546999 -0.47862,0.546999 -0.47863,0 -0.47863,-0.546999 l 0.20513,-1.709375 -1.29913,1.025625 q -0.13675,0.06837 -0.2735,0.06837 -0.547,0 -0.547,-0.478625 0,-0.341875 0.34188,-0.478625 l 1.50425,-0.68375 -1.50425,-0.68375 q -0.34188,-0.205125 -0.34188,-0.478625 0,-0.547 0.547,-0.547 0.13675,0 0.2735,0.13675 z m 19.28175,1.50425 1.29912,1.025625 -0.13675,-1.846125 q -0.0684,-0.478625 0.47863,-0.478625 0.547,0 0.47862,0.478625 l -0.20512,1.846125 1.29912,-1.025625 q 0.0684,-0.13675 0.2735,-0.13675 0.547,0 0.547,0.547 0,0.341875 -0.2735,0.41025 l -1.57262,0.68375 1.50425,0.752125 q 0.34187,0.06837 0.34187,0.478625 0,0.478624 -0.547,0.478624 -0.20512,0 -0.2735,-0.06837 l -1.29912,-1.093999 0.20512,1.846124 q 0.0684,0.547 -0.47862,0.547 -0.47863,0 -0.47863,-0.547 l 0.13675,-1.846124 -1.29912,1.093999 q -0.13675,0.06837 -0.20513,0.06837 -0.547,0 -0.547,-0.478624 0,-0.41025 0.34188,-0.478625 l 1.50425,-0.752125 -1.57263,-0.68375 q -0.2735,-0.06837 -0.2735,-0.478625 0,-0.478625 0.547,-0.478625 0.0684,0 0.20513,0.13675 z m 7.45287,10.871623 1.29913,1.025625 -0.13675,-1.846124 q -0.13675,-0.478625 0.41025,-0.478625 0.547,0 0.47862,0.478625 l -0.20512,1.846124 1.3675,-1.025625 q 0.0684,-0.06837 0.20512,-0.06837 0.547,0 0.547,0.478624 0,0.2735 -0.2735,0.341875 l -1.57262,0.8205 1.57262,0.68375 q 0.2735,0.06837 0.2735,0.478625 0,0.41025 -0.547,0.41025 -0.13675,0 -0.20512,-0.06838 l -1.29913,-1.025625 0.13675,1.846125 q 0,0.478625 -0.47862,0.478625 -0.41025,0 -0.41025,-0.478625 l 0.13675,-1.846125 -1.29913,1.025625 q -0.13675,0.06838 -0.34187,0.06838 -0.41025,0 -0.41025,-0.41025 0,-0.41025 0.2735,-0.478625 l 1.50425,-0.68375 -1.57263,-0.8205 q -0.20512,-0.06837 -0.20512,-0.341875 0,-0.478624 0.41025,-0.478624 0.20512,0 0.34187,0.06837 z m 16.75188,-3.828999 1.43587,1.23075 -0.20512,-2.119625 q 0,-0.478625 0.47862,-0.478625 0.61538,0 0.547,0.478625 l -0.20512,2.119625 1.50425,-1.23075 q 0.0684,-0.06837 0.34187,-0.06837 0.547,0 0.547,0.547 0,0.341875 -0.34187,0.478625 l -1.77775,0.8205 1.70937,0.8205 q 0.41025,0.13675 0.41025,0.478625 0,0.547 -0.547,0.547 -0.2735,0 -0.41025,-0.06837 l -1.3675,-1.23075 0.13675,1.982874 q 0.0684,0.68375 -0.547,0.68375 -0.47862,0 -0.47862,-0.68375 l 0.20512,-1.982874 -1.43587,1.23075 q -0.20513,0.06837 -0.34188,0.06837 -0.547,0 -0.547,-0.547 0,-0.341875 0.34188,-0.478625 l 1.641,-0.8205 -1.70938,-0.8205 q -0.2735,-0.13675 -0.2735,-0.478625 0,-0.547 0.547,-0.547 0.13675,0 0.34188,0.06837 z m 6.017,-14.905748 1.50425,1.23075 -0.20513,-2.119625 q -0.0684,-0.478625 0.547,-0.478625 0.61538,0 0.547,0.478625 l -0.2735,2.119625 1.50425,-1.23075 q 0.13675,-0.06837 0.2735,-0.06837 0.547,0 0.547,0.547 0,0.341875 -0.20512,0.478625 l -1.77775,0.752125 1.641,0.8205 q 0.34187,0.13675 0.34187,0.478624 0,0.68375 -0.547,0.68375 -0.13675,0 -0.2735,-0.205125 l -1.50425,-1.093999 0.20513,1.914499 q 0.0684,0.615375 -0.47863,0.615375 -0.547,0 -0.547,-0.615375 l 0.13675,-1.914499 -1.43587,1.093999 q -0.0684,0.205125 -0.2735,0.205125 -0.547,0 -0.547,-0.68375 0,-0.341874 0.34187,-0.478624 l 1.70938,-0.8205 -1.77775,-0.752125 q -0.2735,-0.13675 -0.2735,-0.547 0,-0.478625 0.61537,-0.478625 0.13675,0 0.20513,0.06837 z m 11.82887,89.639609 q -2.52988,-0.13675 -2.66663,-2.66662 0.13675,-2.59825 2.94013,-2.735 2.39312,0.13675 2.59825,2.666625 -0.20513,2.598245 -2.87175,2.734995 z m -19.82875,15.316 q -2.59825,-0.13675 -2.735,-2.66662 0.20513,-2.66663 2.87175,-2.80338 2.52988,0.20513 2.59825,2.735 -0.0684,2.59825 -2.735,2.735 z m 19.89712,0 q -2.59825,-0.13675 -2.735,-2.66662 0.13675,-2.66663 2.94013,-2.80338 2.39312,0.20513 2.59825,2.735 -0.20513,2.59825 -2.80338,2.735 z m 26.66625,-26.461119 2.39313,1.982875 -0.34188,-3.41875 q -0.0684,-0.95725 0.88888,-0.95725 1.02562,0 0.95725,0.95725 l -0.41025,3.41875 2.4615,-1.982875 q 0.20512,-0.205125 0.54699,-0.205125 0.88888,0 0.88888,1.025625 0,0.615375 -0.47863,0.8205 l -2.87174,1.299125 2.80337,1.367499 q 0.547,0.205125 0.547,0.888875 0,0.95725 -0.88888,0.95725 -0.34187,0 -0.54699,-0.2735 l -2.4615,-1.846125 0.2735,3.213625 q 0.13675,1.025625 -0.8205,1.025625 -0.88888,0 -0.88888,-1.025625 l 0.34188,-3.213625 -2.39313,1.846125 q -0.2735,0.2735 -0.547,0.2735 -0.95725,0 -0.95725,-0.95725 0,-0.68375 0.547,-0.888875 l 2.94013,-1.367499 -3.0085,-1.299125 q -0.47863,-0.205125 -0.47863,-0.8205 0,-1.025625 0.95725,-1.025625 0.2735,0 0.547,0.205125 z m -64.47762,-42.255745 1.43588,1.23075 -0.20513,-2.05125 q -0.0684,-0.547 0.547,-0.547 0.61538,0 0.547,0.547 l -0.2735,2.05125 1.43588,-1.23075 q 0.20512,-0.06837 0.34187,-0.06837 0.61538,0 0.61538,0.68375 0,0.2735 -0.34188,0.41025 l -1.70937,0.752125 1.641,0.8205 q 0.34187,0.13675 0.34187,0.547 0,0.547 -0.547,0.547 -0.13675,0 -0.34187,-0.13675 l -1.43588,-1.162375 0.2735,1.982875 q 0,0.615375 -0.547,0.615375 -0.547,0 -0.547,-0.615375 l 0.20513,-1.982875 -1.43588,1.162375 q -0.13675,0.13675 -0.2735,0.13675 -0.547,0 -0.547,-0.547 0,-0.41025 0.2735,-0.547 l 1.70938,-0.8205 -1.77775,-0.752125 q -0.2735,-0.13675 -0.2735,-0.41025 0,-0.68375 0.61537,-0.68375 0.13675,0 0.2735,0.06837 z m -29.60637,17.093748 1.57263,1.23075 -0.2735,-2.119625 q -0.0684,-0.478625 0.547,-0.478625 0.61537,0 0.547,0.478625 l -0.20513,2.119625 1.43588,-1.23075 q 0.13675,-0.06838 0.2735,-0.06838 0.547,0 0.547,0.547 0,0.341875 -0.20513,0.547 l -1.77775,0.752125 1.70938,0.8205 q 0.2735,0.13675 0.2735,0.478625 0,0.615375 -0.547,0.615375 -0.13675,0 -0.2735,-0.06838 l -1.43588,-1.23075 0.13675,1.9145 q 0.0684,0.68375 -0.47862,0.68375 -0.547,0 -0.547,-0.68375 l 0.2735,-1.9145 -1.57263,1.23075 q -0.0684,0.06838 -0.20512,0.06838 -0.61538,0 -0.61538,-0.615375 0,-0.341875 0.41025,-0.478625 l 1.641,-0.8205 -1.77775,-0.752125 q -0.2735,-0.205125 -0.2735,-0.547 0,-0.547 0.61538,-0.547 0.13675,0 0.20512,0.06838 z m 73.22962,-26.461122 1.57262,1.162375 -0.2735,-2.051249 q -0.0684,-0.547 0.547,-0.547 0.61538,0 0.547,0.547 l -0.20512,2.051249 1.43587,-1.162375 q 0.13675,-0.13675 0.2735,-0.13675 0.547,0 0.547,0.547 0,0.478625 -0.20512,0.547 l -1.77775,0.752125 1.70937,0.8205 q 0.2735,0.13675 0.2735,0.478625 0,0.615375 -0.547,0.615375 -0.13675,0 -0.2735,-0.06838 l -1.43587,-1.162375 0.13675,1.9145 q 0.0684,0.615375 -0.47863,0.615375 -0.547,0 -0.547,-0.615375 l 0.20513,-1.9145 -1.50425,1.162375 q -0.0684,0.06838 -0.2735,0.06838 -0.547,0 -0.547,-0.615375 0,-0.341875 0.41025,-0.478625 l 1.641,-0.8205 -1.70938,-0.752125 q -0.34187,-0.06838 -0.34187,-0.547 0,-0.547 0.61537,-0.547 0.13675,0 0.20513,0.13675 z m -65.36649,43.69162 2.52987,2.119625 -0.34187,-3.5555 q -0.13675,-0.95725 0.8205,-0.95725 1.094,0 0.88887,0.95725 l -0.34187,3.5555 2.52987,-2.119625 q 0.20513,-0.205125 0.547,-0.205125 0.88888,0 0.88888,1.094 0,0.478625 -0.47863,0.752125 l -2.94012,1.3675 2.80337,1.299124 q 0.547,0.205125 0.547,0.888875 0,0.95725 -0.8205,0.95725 -0.41025,0 -0.547,-0.205125 l -2.4615,-1.982875 0.2735,3.41875 q 0.13675,0.95725 -0.88887,0.95725 -0.8205,0 -0.8205,-0.95725 l 0.2735,-3.41875 -2.4615,1.982875 q -0.20513,0.205125 -0.41025,0.205125 -0.95725,0 -0.95725,-0.95725 0,-0.68375 0.547,-0.888875 l 2.87175,-1.299124 -2.94013,-1.3675 q -0.547,-0.2735 -0.547,-0.752125 0,-1.094 1.02563,-1.094 0.20512,0 0.41025,0.205125 z"
         id="path4140"
         inkscape:connector-curvature="0" />
      <path
         d="m 354.60198,97.16835 q -2.735,-3.076875 -3.89738,-6.222124 -1.094,-3.213625 -1.094,-7.110999 0,-3.076875 0.95725,-5.880249 1.02563,-2.87175 3.0085,-5.05975 2.05125,-2.188 5.05975,-3.487124 3.07687,-1.299125 7.17937,-1.299125 2.188,0 3.96575,0.41025 1.84613,0.341875 3.96575,1.299125 l 0.20513,-0.2735 q -0.13675,-0.478625 -0.13675,-0.888875 0,-0.478625 0,-0.95725 0,-6.222124 2.05125,-11.008374 2.11962,-4.786249 5.60675,-7.999874 3.5555,-3.213624 8.205,-4.854624 4.71787,-1.641 9.91437,-1.641 3.69225,0 7.111,0.615375 3.41875,0.547 6.70075,1.77775 l 9.5725,-11.486999 -6.564,12.786124 q 5.33325,2.598249 9.70925,7.247749 4.376,4.581124 7.72637,11.623748 1.29913,-0.13675 2.52988,-0.205125 1.29912,-0.13675 2.4615,-0.13675 5.26487,0 9.23062,1.709375 4.03412,1.641 6.76912,4.512749 2.735,2.803375 4.1025,6.632375 1.3675,3.760624 1.3675,7.931499 0,3.692249 -0.61537,6.563999 -0.547,2.803374 -1.50425,5.401624 l -53.53762,0 -11.35025,14.769 6.15375,-14.769 -44.85399,0 z m 24.47824,-17.503998 q -2.87175,-3.145249 -5.7435,-4.581124 -2.87175,-1.435875 -6.564,-1.435875 -4.1025,0 -6.63237,2.393125 -2.4615,2.393124 -2.4615,7.384499 0,3.076874 0.95725,5.196499 0.95725,2.119625 2.4615,3.487125 l 40.47799,0 6.017,-14.495498 -17.91424,-4.51275 18.93987,-22.768872 q -2.39313,-0.752125 -4.923,-0.95725 -2.4615,-0.2735 -5.05975,-0.2735 -4.44437,0 -7.9315,1.435875 -3.41875,1.3675 -5.81187,3.760624 -2.32475,2.393125 -3.5555,5.60675 -1.16238,3.213624 -1.16238,6.905874 0,2.05125 0.13675,3.487124 0.20513,1.435875 0.547,2.666625 0.41025,1.162375 0.88888,2.188 0.547,1.025625 1.16237,2.119625 l -3.829,2.393124 z m 44.92237,-7.521249 -15.45275,19.965498 41.77712,0 q 0.68375,-1.50425 0.95725,-3.213625 0.34188,-1.709375 0.34188,-3.418749 0,-3.0085 -1.094,-5.60675 -1.094,-2.598249 -3.14525,-4.512749 -1.98288,-1.982875 -4.78625,-3.076875 -2.80338,-1.094 -6.15375,-1.094 -1.9145,0 -4.03412,0.13675 -2.05125,0.13675 -3.829,0.615375 -3.62388,-8.204999 -7.45288,-12.854498 -3.76062,-4.6495 -7.9315,-6.905874 l -7.79475,15.247623 18.598,4.717874 z m -9.846,30.221747 q -1.02562,3.282 -1.02562,7.58962 0,3.96575 -3.41875,3.96575 -3.5555,0 -3.5555,-3.41875 0,-5.05975 7.99987,-8.13662 z m -39.99937,13.88012 q -0.75212,2.52988 -0.88887,5.40163 -0.0684,1.57262 -0.13675,2.59825 -0.0684,1.02562 -0.20513,1.50425 -0.75212,2.05125 -3.14525,2.05125 -3.48712,0 -3.48712,-3.35038 0,-5.26487 7.86312,-8.205 z m 13.74338,-13.88012 q -0.75213,2.52987 -0.88888,5.40162 -0.13675,3.21363 -0.41025,4.1025 -0.75212,2.05125 -3.14525,2.05125 -3.41875,0 -3.41875,-3.41875 0,-5.1965 7.86313,-8.13662 z m 12.51262,13.88012 q -1.02562,3.282 -1.02562,7.58963 0,3.96575 -3.41875,3.96575 -3.48713,0 -3.48713,-3.35038 0,-5.12812 7.9315,-8.205 z"
         id="path4142"
         inkscape:connector-curvature="0" />
    </g>
  </g>
</svg>
